<?xml version="1.0" standalone="no"?>
<!DOCTYPE svg PUBLIC "-//W3C//DTD SVG 20010904//EN"
 "http://www.w3.org/TR/2001/REC-SVG-20010904/DTD/svg10.dtd">
<svg version="1.0" xmlns="http://www.w3.org/2000/svg"
 width="648.000000pt" height="648.000000pt" viewBox="0 0 648.000000 648.000000"
 preserveAspectRatio="xMidYMid meet">
<metadata>
Created by potrace 1.11, written by Peter Selinger 2001-2013
</metadata>
<g transform="translate(0.000000,648.000000) scale(0.100000,-0.100000)"
fill="#000000" stroke="none">
<path d="M1690 4056 c0 -3 6 -11 13 -18 7 -7 43 -50 80 -95 l68 -83 -201 2
c-110 0 -204 -2 -207 -6 -6 -6 -52 -216 -53 -238 0 -5 126 -8 280 -8 154 0
280 -3 280 -6 0 -3 -14 -36 -31 -72 -17 -37 -41 -92 -54 -122 -13 -30 -42 -95
-64 -143 -23 -49 -41 -90 -41 -92 0 -1 -18 -42 -40 -89 -22 -47 -40 -88 -40
-91 0 -3 -25 -57 -55 -121 -30 -64 -55 -118 -55 -121 0 -2 -10 -25 -21 -51
-12 -26 -30 -67 -41 -92 -12 -25 -34 -73 -49 -108 -16 -34 -29 -65 -29 -67 0
-3 204 -4 453 -3 l452 3 12 45 c6 25 21 78 33 118 12 41 19 76 16 79 -2 3
-131 5 -285 5 -155 0 -281 1 -281 3 0 4 126 288 160 360 44 93 70 153 70 159
0 3 18 43 39 88 53 113 98 211 128 283 14 33 40 92 58 130 34 72 65 145 65
151 0 2 -97 4 -215 4 -118 0 -215 3 -215 6 0 7 59 82 93 119 10 11 28 32 39
48 l19 27 -190 0 c-105 0 -191 -2 -191 -4z"/>
<path d="M3125 3853 c-64 -14 -152 -46 -162 -60 -13 -16 -7 -141 8 -157 4 -5
24 -1 45 9 21 10 49 21 63 25 18 4 27 14 29 31 4 37 24 102 39 124 7 11 13 23
13 27 0 8 -3 8 -35 1z"/>
<path d="M3179 3809 c-15 -30 -29 -69 -33 -88 -5 -31 -4 -33 17 -28 60 15 195
28 236 22 25 -3 66 -8 91 -11 77 -9 206 -54 284 -99 41 -23 72 -37 70 -31 -7
16 -134 139 -171 164 -44 31 -147 81 -202 98 -25 9 -96 18 -156 21 l-110 6
-26 -54z"/>
<path d="M4805 3852 c-55 -4 -170 -39 -230 -69 -187 -95 -314 -250 -383 -467
-24 -74 -22 -291 2 -371 77 -253 258 -437 501 -506 89 -26 260 -36 338 -20
l57 12 0 160 c0 87 -2 159 -5 159 -3 0 -27 -11 -53 -24 -73 -38 -160 -53 -229
-38 -130 27 -229 105 -289 227 -118 239 -28 526 199 634 59 28 79 33 145 32
80 0 139 -15 198 -52 l34 -21 0 165 0 165 -27 6 c-35 8 -205 13 -258 8z"/>
<path d="M2885 3758 c-11 -6 -49 -34 -84 -62 -62 -49 -63 -50 -40 -60 13 -6
40 -27 60 -48 l35 -37 37 26 c40 28 41 32 31 132 -7 65 -8 66 -39 49z"/>
<path d="M3255 3676 c-5 -3 -31 -7 -58 -11 l-47 -6 29 -42 c16 -23 40 -51 53
-62 54 -46 160 -123 268 -195 295 -198 404 -323 411 -474 2 -25 4 -46 6 -46 2
0 8 12 14 28 69 171 65 425 -8 567 -38 73 -180 162 -343 215 -47 15 -100 22
-190 26 -69 2 -129 2 -135 0z"/>
<path d="M3071 3629 c-20 -8 -90 -39 -98 -44 -3 -2 33 -172 52 -240 70 -262
128 -426 217 -615 40 -85 139 -270 155 -289 6 -7 104 20 153 42 88 40 169 98
238 171 83 87 97 122 89 218 -14 162 -98 258 -417 473 -80 54 -165 114 -190
133 -57 45 -139 133 -140 150 0 14 -25 15 -59 1z"/>
<path d="M2675 3563 c-73 -101 -121 -237 -130 -373 l-6 -85 19 50 c45 120 112
224 202 313 53 52 60 63 51 80 -11 21 -70 62 -90 62 -6 0 -26 -21 -46 -47z"/>
<path d="M2902 3542 c-24 -18 -24 -20 -11 -95 13 -78 6 -178 -36 -477 -17
-122 -20 -333 -6 -388 9 -31 20 -42 68 -68 120 -66 278 -98 401 -84 l43 5 -35
58 c-33 55 -130 249 -176 351 -54 123 -157 467 -204 689 -7 32 -13 33 -44 9z"/>
<path d="M2775 3434 c-101 -110 -151 -190 -189 -307 -35 -105 -36 -113 -12
-190 13 -39 33 -92 44 -117 29 -59 118 -176 160 -208 l33 -26 -6 76 c-6 66 7
291 21 368 29 162 43 382 28 438 -9 32 -23 26 -79 -34z"/>
</g>
</svg>
